<svg xmlns="http://www.w3.org/2000/svg" viewBox="0 0 1200 520" role="img" aria-labelledby="title desc">
<title id="title">Folio xx editorial cliff motif</title>
<desc id="desc">Monochrome rocky coast, lone figure, technical linework and a warm sunset disc.</desc>
<defs>
  <linearGradient id="sun" x1="0" x2="1" y1="0" y2="1">
    <stop offset="0" stop-color="#F7C7B2"/>
    <stop offset=".55" stop-color="#F6A67A"/>
    <stop offset="1" stop-color="#F5A24A"/>
  </linearGradient>
  <linearGradient id="mist" x1="0" x2="0" y1="0" y2="1">
    <stop offset="0" stop-color="#F4F1EC" stop-opacity=".1"/>
    <stop offset="1" stop-color="#F4F1EC" stop-opacity=".85"/>
  </linearGradient>
</defs>
<rect width="1200" height="520" fill="#F4F1EC"/>
<circle cx="930" cy="145" r="118" fill="url(#sun)" opacity=".84"/>
<g fill="none" stroke="#111113" stroke-opacity=".16" stroke-width="1.3">
  <circle cx="735" cy="242" r="88"/>
  <circle cx="735" cy="242" r="145"/>
  <path d="M600 410C730 235 925 213 1105 305"/>
  <path d="M650 455C810 310 1015 320 1170 395"/>
  <path d="M735 67v350M571 242h330"/>
</g>
<g fill="#111113">
  <path d="M0 520V370l54-42 51 18 32-58 72 6 38-72 92-26 46 35 62-99 93-44 79 22 48 81 51 24-26 54-65 32-26 61-61 36-83 14-71 35-80-4-70 28-66-9-63 19z"/>
  <path d="M25 409l73-36 62 11 69-50 76 16 56-29 70 32-28 27-83 26-65-4-84 39-74-3z" fill="#2A292B" opacity=".55"/>
  <path d="M868 397c54-28 110-34 166-16 44 14 92 17 166 7v132H805c18-37 39-77 63-123z" fill="#8F8B89" opacity=".34"/>
</g>
<g fill="#111113">
  <circle cx="665" cy="168" r="9"/>
  <path d="M657 178h16l8 54-9 71h-12l-5-70z"/>
  <path d="M655 202l-30 45 7 6 31-37zM676 199l24 50-7 4-27-42z"/>
</g>
<g fill="none" stroke="#111113" stroke-width="1.4">
  <path d="M665 74v70"/>
  <circle cx="665" cy="74" r="3" fill="#111113"/>
  <path d="M1030 48v130"/>
  <circle cx="1030" cy="48" r="3" fill="#111113"/>
</g>
<g font-family="Inter, Helvetica Neue, Arial, sans-serif" font-size="13" letter-spacing="5" fill="#111113" opacity=".7">
  <text x="1015" y="270">DISCIPLINE</text>
  <text x="1015" y="310">INSIGHT</text>
  <text x="1015" y="350">PERSPECTIVE</text>
  <text x="1015" y="390">FREEDOM</text>
</g>
<rect y="430" width="1200" height="90" fill="url(#mist)"/>
</svg>